<svg xmlns="http://www.w3.org/2000/svg" width="86" height="38" viewBox="0 0 86 38" fill="none"><path d="M10.2831 35.5656C8.19653 35.5656 6.42119 34.8174 4.96865 33.3093C3.5161 31.8012 2.78983 29.9843 2.78983 27.8468V10.1531C2.78983 8.01558 3.52763 6.18683 4.9917 4.69058C6.45578 3.18245 8.23111 2.43433 10.2831 2.43433C12.3697 2.43433 14.1335 3.19433 15.5861 4.70245C17.0386 6.21058 17.7649 8.02745 17.7649 10.165V13.8462H12.8654V10.07C12.8654 9.2862 12.6003 8.6212 12.07 8.07495C11.5397 7.5287 10.8941 7.25558 10.1333 7.25558C9.38393 7.25558 8.74988 7.5287 8.21958 8.07495C7.68929 8.6212 7.42414 9.2862 7.42414 10.07V27.8112C7.42414 28.5949 7.68929 29.2481 8.21958 29.7943C8.74988 30.3406 9.38393 30.6137 10.1333 30.6137C10.8941 30.6137 11.5397 30.3406 12.07 29.7943C12.6003 29.2481 12.8654 28.5831 12.8654 27.8112V23.3581H17.7649V27.8587C17.7649 30.0081 17.0271 31.8368 15.563 33.3212C14.0989 34.8174 12.3351 35.5656 10.2831 35.5656Z" fill="#3CAD68"></path><path d="M30.0539 27.7281L28.9011 35.15H23.9785L29.293 2.83813H35.8064L41.0517 35.15H36.0946L34.9764 27.7281H30.0539ZM32.5324 10.2481L30.7802 22.99H34.2847L32.5324 10.2481Z" fill="#3CAD68"></path><path d="M61.4796 35.1619H48.5796V2.83813H53.3062V30.3169H61.4796V35.1619Z" fill="#3CAD68"></path><path d="M75.7053 2.44629C77.7919 2.44629 79.5673 3.20629 81.0314 4.71441C82.4954 6.22254 83.2217 8.05129 83.2217 10.1888V27.8113C83.2217 29.9607 82.4839 31.7894 81.0198 33.2975C79.5557 34.8057 77.7804 35.5538 75.7053 35.5538C73.6303 35.5538 71.8665 34.7938 70.4139 33.2857C68.9614 31.7775 68.2351 29.9488 68.2351 27.8113V10.2007C68.2351 8.05129 68.9729 6.22254 70.437 4.71441C71.9011 3.20629 73.6649 2.44629 75.7053 2.44629ZM78.2761 10.1057C78.2761 9.32191 78.011 8.66879 77.4922 8.13441C76.9734 7.60004 76.3279 7.32691 75.5785 7.32691C74.8292 7.32691 74.1952 7.60004 73.6649 8.13441C73.1346 8.66879 72.8579 9.32191 72.8579 10.1057V27.7875C72.8579 28.5594 73.123 29.2125 73.6533 29.7469C74.1836 30.2813 74.8292 30.5663 75.567 30.5663C76.3279 30.5663 76.9619 30.2932 77.4807 29.7469C77.9994 29.2007 78.2646 28.5475 78.2646 27.7875V10.1057H78.2761Z" fill="#3CAD68"></path></svg>